<svg xmlns="http://www.w3.org/2000/svg" width="37" height="36" viewBox="0 0 37 36">
  <g id="facebook" transform="translate(0 -0.168)">
    <path id="facebook-2" data-name="facebook" d="M11.412,23.265a.3.3,0,0,0,.3.3h4.23a.3.3,0,0,0,.3-.3V11.688H19.3a.3.3,0,0,0,.3-.272l.295-3.487a.3.3,0,0,0-.3-.322H16.236V5.132a1.05,1.05,0,0,1,1.05-1.051h2.363a.3.3,0,0,0,.3-.3V.3a.3.3,0,0,0-.3-.3H15.656a4.243,4.243,0,0,0-4.243,4.243V7.607H9.3a.3.3,0,0,0-.3.3v3.489a.3.3,0,0,0,.3.3h2.115Z" transform="translate(3.564 6.213)" fill="#458ec0" fill-rule="evenodd"/>
    <rect id="Retângulo_36" data-name="Retângulo 36" width="37" height="36" transform="translate(0 0.168)" fill="none"/>
  </g>
</svg>
