<svg xmlns="http://www.w3.org/2000/svg" width="37" height="36" viewBox="0 0 37 36">
  <g id="whatsapp" transform="translate(0.012 -0.168)">
    <path id="whatsapp-2" data-name="whatsapp" d="M19.438,5.572A11.333,11.333,0,0,0,1.607,19.243L0,25.112l6.006-1.577a11.294,11.294,0,0,0,5.414,1.378h.005A11.438,11.438,0,0,0,22.862,13.584,11.374,11.374,0,0,0,19.438,5.572ZM11.426,23a9.4,9.4,0,0,1-4.8-1.311l-.342-.2-3.562.934.949-3.475L3.45,18.59a9.434,9.434,0,1,1,17.5-5.006A9.521,9.521,0,0,1,11.426,23Zm5.164-7.053c-.281-.143-1.674-.827-1.934-.919s-.449-.143-.638.143-.73.919-.9,1.112-.332.214-.612.071a7.705,7.705,0,0,1-3.853-3.368c-.291-.5.291-.464.832-1.546a.525.525,0,0,0-.026-.5c-.071-.143-.638-1.536-.873-2.1-.23-.551-.464-.475-.638-.485s-.352-.01-.541-.01a1.049,1.049,0,0,0-.755.352,3.181,3.181,0,0,0-.99,2.363A5.546,5.546,0,0,0,6.818,14a12.65,12.65,0,0,0,4.838,4.276c1.8.776,2.5.842,3.4.709a2.9,2.9,0,0,0,1.909-1.347,2.368,2.368,0,0,0,.163-1.347C17.06,16.161,16.871,16.09,16.59,15.952Z" transform="translate(7.235 4.591)" fill="#458ec0"/>
    <rect id="Retângulo_36" data-name="Retângulo 36" width="37" height="36" transform="translate(-0.012 0.168)" fill="none"/>
  </g>
</svg>
