<svg xmlns="http://www.w3.org/2000/svg" width="37" height="37" viewBox="0 0 37 37">
  <g id="youtube" transform="translate(-0.398)">
    <g id="youtube-2" data-name="youtube" transform="translate(7.186 9.423)">
      <path id="Caminho_9" data-name="Caminho 9" d="M25.289,8.673a3.07,3.07,0,0,0-2.143-2.209C21.247,6,13.649,6,13.649,6s-7.6,0-9.5.508A3.07,3.07,0,0,0,2.008,8.717,32.029,32.029,0,0,0,1.5,14.559a32.029,32.029,0,0,0,.508,5.887A3.07,3.07,0,0,0,4.15,22.567c1.9.508,9.5.508,9.5.508s7.6,0,9.5-.508a3.07,3.07,0,0,0,2.143-2.209,32.028,32.028,0,0,0,.508-5.8,32.028,32.028,0,0,0-.508-5.887Z" transform="translate(-1.499 -6)" fill="none" stroke="#458ec0" stroke-linecap="round" stroke-linejoin="round" stroke-width="2"/>
      <path id="Caminho_10" data-name="Caminho 10" d="M14.625,19.943l6.351-3.612L14.625,12.72Z" transform="translate(-4.961 -7.772)" fill="none" stroke="#458ec0" stroke-linecap="round" stroke-linejoin="round" stroke-width="2"/>
    </g>
    <rect id="Retângulo_36" data-name="Retângulo 36" width="37" height="37" transform="translate(0.398)" fill="none"/>
  </g>
</svg>
