<svg xmlns="http://www.w3.org/2000/svg" width="40.206" height="34.05" viewBox="0 0 40.206 34.05">
  <g id="favicon" transform="translate(-7033 -31)">
    <g id="Grupo_1" data-name="Grupo 1" transform="translate(7033 31)">
      <path id="Caminho_7" data-name="Caminho 7" d="M-716.54,100.461c-11.1,0-20.1,6.189-20.1,13.824h40.206C-696.437,106.65-705.438,100.461-716.54,100.461Zm-16.119,10.746c5.071-6.882,11.832-7.3,11.832-7.3-1.509,1.173-5.071,7.3-5.071,7.3Zm14.605,0h-4.541l4.541-5.9Zm2.505,0v-5.9l4.541,5.9Zm7.844,0s-3.562-6.132-5.071-7.3c0,0,6.761.423,11.832,7.3Z" transform="translate(736.643 -100.461)" fill="#323c42"/>
      <path id="Caminho_8" data-name="Caminho 8" d="M-696.437,363.64h-40.206l3.2,3.958,7.684-.116.058,7.1,4.366,3.784V367.54h4.541l-.058,14.262Zm-16.338,3.842h5.7l-5.7,5.239Z" transform="translate(736.643 -347.752)" fill="#323c42"/>
    </g>
  </g>
</svg>
