<svg xmlns="http://www.w3.org/2000/svg" width="37" height="36" viewBox="0 0 37 36">
  <g id="instagran" transform="translate(0.422 -0.168)">
    <path id="instagram" d="M21.339,16.464a4.874,4.874,0,0,1-4.874,4.874H7.1a4.874,4.874,0,0,1-4.874-4.874V7.1A4.874,4.874,0,0,1,7.1,2.222h9.367A4.874,4.874,0,0,1,21.338,7.1v9.368ZM23.561,7.1a7.1,7.1,0,0,0-7.1-7.1H7.1A7.1,7.1,0,0,0,0,7.1v9.368a7.1,7.1,0,0,0,7.1,7.1h9.366a7.1,7.1,0,0,0,7.1-7.1ZM11.82,15.66a3.727,3.727,0,1,1,3.727-3.727A3.732,3.732,0,0,1,11.82,15.66Zm0-9.545a5.818,5.818,0,1,0,5.819,5.818A5.825,5.825,0,0,0,11.82,6.114Zm6.158-1.777a1.385,1.385,0,1,0,1.385,1.385A1.385,1.385,0,0,0,17.979,4.338Z" transform="translate(6.028 6.213)" fill="#458ec0"/>
    <rect id="Retângulo_36" data-name="Retângulo 36" width="37" height="36" transform="translate(-0.422 0.168)" fill="none"/>
  </g>
</svg>
