<svg xmlns="http://www.w3.org/2000/svg" width="30.128" height="30.183" viewBox="0 0 30.128 30.183">
  <path id="phone" d="M30.294,23.35v4.092a2.728,2.728,0,0,1-2.973,2.728A26.992,26.992,0,0,1,15.55,25.982,26.6,26.6,0,0,1,7.366,17.8,26.992,26.992,0,0,1,3.179,5.973,2.728,2.728,0,0,1,5.893,3H9.985a2.728,2.728,0,0,1,2.728,2.346,17.513,17.513,0,0,0,.955,3.833,2.728,2.728,0,0,1-.614,2.878l-1.732,1.732a21.823,21.823,0,0,0,8.184,8.184l1.732-1.732a2.728,2.728,0,0,1,2.878-.614,17.513,17.513,0,0,0,3.833.955,2.728,2.728,0,0,1,2.346,2.769Z" transform="translate(-1.667 -1.5)" fill="none" stroke="#323c42" stroke-linecap="round" stroke-linejoin="round" stroke-width="3"/>
</svg>
